<svg id="Layer_1" data-name="Layer 1" xmlns="http://www.w3.org/2000/svg" viewBox="0 0 30.88 12.35"><title>imdb</title><path d="M3.79,7.29V19.46H0.63V7.29H3.79Z" transform="translate(-0.63 -7.29)"/><path d="M14.83,7.29V19.46H12.06V11.25L11,19.46H9l-1.16-8v8H5.06V7.29H9.16q0.18,1.1.38,2.59L10,13l0.73-5.68h4.12Z" transform="translate(-0.63 -7.29)"/><path d="M16.1,7.29h2.37a14.74,14.74,0,0,1,3.1.21,2.38,2.38,0,0,1,1.23.69,2.18,2.18,0,0,1,.53,1.07,16.15,16.15,0,0,1,.11,2.32v4.26A9.84,9.84,0,0,1,23.27,18a1.64,1.64,0,0,1-.54.86,2.23,2.23,0,0,1-.95.44,8.55,8.55,0,0,1-1.7.12h-4V7.29Zm3.16,2.08v8a0.93,0.93,0,0,0,.84-0.27,4,4,0,0,0,.16-1.49V10.88a6.65,6.65,0,0,0-.05-1.06A0.5,0.5,0,0,0,20,9.48,1.55,1.55,0,0,0,19.26,9.37Z" transform="translate(-0.63 -7.29)"/><path d="M27.55,7.29v2.88a2.49,2.49,0,0,1,.84-0.65,2.36,2.36,0,0,1,1-.21,2.74,2.74,0,0,1,1.08.2,1.56,1.56,0,0,1,.7.55,1.66,1.66,0,0,1,.29.69,13.07,13.07,0,0,1,0,1.44v4.49a6.7,6.7,0,0,1-.15,1.63,1.72,1.72,0,0,1-.69.93,2.12,2.12,0,0,1-1.29.39,2.18,2.18,0,0,1-1-.23,2.65,2.65,0,0,1-.85-0.7l-0.2.75H24.51V7.29h3Zm0.92,5a3.25,3.25,0,0,0-.1-1A0.37,0.37,0,0,0,28,11.07a0.34,0.34,0,0,0-.36.21,3.75,3.75,0,0,0-.08,1v4.3a3.4,3.4,0,0,0,.09,1,0.36,0.36,0,0,0,.37.23,0.35,0.35,0,0,0,.37-0.23,4.27,4.27,0,0,0,.09-1.12v-4.2Z" transform="translate(-0.63 -7.29)"/></svg>